<svg xmlns="http://www.w3.org/2000/svg" viewBox="0 0 48 48" role="img" aria-label="Outlook">
  <defs>
    <linearGradient id="front" x1="7" x2="27" y1="11" y2="37" gradientUnits="userSpaceOnUse">
      <stop stop-color="#0A84E8"/>
      <stop offset="1" stop-color="#005A9E"/>
    </linearGradient>
  </defs>
  <path fill="#0078D4" d="M20 8h18.5A3.5 3.5 0 0 1 42 11.5v25A3.5 3.5 0 0 1 38.5 40H20V8Z"/>
  <path fill="#50D9FF" d="M22 11h16a1 1 0 0 1 1 1v8H22v-9Z"/>
  <path fill="#0078D4" d="M22 20h17v8H22v-8Z"/>
  <path fill="#0A5CAB" d="M22 28h17v8a1 1 0 0 1-1 1H22v-9Z"/>
  <path fill="#fff" d="M23 15h15v18H23V15Z" opacity=".96"/>
  <path fill="#0078D4" d="m23 16.5 7.5 6.5 7.5-6.5V15H23v1.5Z"/>
  <path fill="#005A9E" d="m23 33 6.3-6.6L23 21.2V33Zm15 0-6.3-6.6 6.3-5.2V33Z" opacity=".75"/>
  <rect x="5" y="12" width="22" height="24" rx="3" fill="url(#front)"/>
  <path fill="#fff" d="M16 29.8c-4.1 0-6.8-3.1-6.8-6.8s2.7-6.8 6.8-6.8 6.8 3.1 6.8 6.8-2.7 6.8-6.8 6.8Zm0-3.1c2 0 3.3-1.5 3.3-3.7s-1.3-3.7-3.3-3.7-3.3 1.5-3.3 3.7 1.3 3.7 3.3 3.7Z"/>
</svg>
